<mxfile host="app.diagrams.net" modified="2022-10-31T21:11:26.449Z" agent="5.0 (X11)" etag="DFmny-JriB4EY8Dh0ybL" version="20.5.1" type="github">
  <diagram id="R2lEEEUBdFMjLlhIrx00" name="Page-1">
    <mxGraphModel dx="1422" dy="1893" grid="1" gridSize="10" guides="1" tooltips="1" connect="1" arrows="1" fold="1" page="1" pageScale="1" pageWidth="850" pageHeight="1100" background="#114B5F" math="0" shadow="0" extFonts="Permanent Marker^https://fonts.googleapis.com/css?family=Permanent+Marker">
      <root>
        <mxCell id="0" />
        <mxCell id="1" parent="0" />
        <mxCell id="qyAosdV2W5aRh3o3MJe6-1" value="User" style="shape=umlActor;verticalLabelPosition=bottom;verticalAlign=top;html=1;outlineConnect=0;fillColor=#F45B69;strokeColor=#028090;fontColor=#E4FDE1;" vertex="1" parent="1">
          <mxGeometry x="40" y="230" width="30" height="60" as="geometry" />
        </mxCell>
        <mxCell id="qyAosdV2W5aRh3o3MJe6-2" value="Регістрація" style="ellipse;whiteSpace=wrap;html=1;fillColor=#F45B69;strokeColor=#028090;fontColor=#E4FDE1;" vertex="1" parent="1">
          <mxGeometry x="300" y="20" width="140" height="70" as="geometry" />
        </mxCell>
        <mxCell id="qyAosdV2W5aRh3o3MJe6-3" value="Авторизація" style="ellipse;whiteSpace=wrap;html=1;fillColor=#F45B69;strokeColor=#028090;fontColor=#E4FDE1;" vertex="1" parent="1">
          <mxGeometry x="487.5" y="180" width="140" height="70" as="geometry" />
        </mxCell>
        <mxCell id="qyAosdV2W5aRh3o3MJe6-6" value="Створення постів" style="ellipse;whiteSpace=wrap;html=1;fillColor=#F45B69;strokeColor=#028090;fontColor=#E4FDE1;" vertex="1" parent="1">
          <mxGeometry x="627.5" y="250" width="140" height="70" as="geometry" />
        </mxCell>
        <mxCell id="qyAosdV2W5aRh3o3MJe6-8" value="Вибір категорій, сортування за параметрами" style="ellipse;whiteSpace=wrap;html=1;fillColor=#F45B69;strokeColor=#028090;fontColor=#E4FDE1;" vertex="1" parent="1">
          <mxGeometry x="320" y="450" width="215" height="80" as="geometry" />
        </mxCell>
        <mxCell id="qyAosdV2W5aRh3o3MJe6-9" value="Створення коментарів. їх редагування та видалення" style="ellipse;whiteSpace=wrap;html=1;fillColor=#F45B69;strokeColor=#028090;fontColor=#E4FDE1;" vertex="1" parent="1">
          <mxGeometry x="470" y="380" width="215" height="80" as="geometry" />
        </mxCell>
        <mxCell id="qyAosdV2W5aRh3o3MJe6-10" value="&lt;div&gt;Редагування своїх постів та можливість їх видалення&lt;/div&gt;" style="ellipse;whiteSpace=wrap;html=1;fillColor=#F45B69;strokeColor=#028090;fontColor=#E4FDE1;" vertex="1" parent="1">
          <mxGeometry x="427.5" y="100" width="215" height="80" as="geometry" />
        </mxCell>
        <mxCell id="qyAosdV2W5aRh3o3MJe6-11" value="Перегляд інших юзерів" style="ellipse;whiteSpace=wrap;html=1;fillColor=#F45B69;strokeColor=#028090;fontColor=#E4FDE1;" vertex="1" parent="1">
          <mxGeometry x="270" y="-80" width="215" height="80" as="geometry" />
        </mxCell>
        <mxCell id="qyAosdV2W5aRh3o3MJe6-15" value="&lt;div&gt;Редагування власних данних&lt;br&gt;&lt;/div&gt;" style="ellipse;whiteSpace=wrap;html=1;fillColor=#F45B69;strokeColor=#028090;fontColor=#E4FDE1;" vertex="1" parent="1">
          <mxGeometry x="460" width="215" height="80" as="geometry" />
        </mxCell>
        <mxCell id="qyAosdV2W5aRh3o3MJe6-19" value="Відновлення паролю" style="ellipse;whiteSpace=wrap;html=1;fillColor=#F45B69;strokeColor=#028090;fontColor=#E4FDE1;" vertex="1" parent="1">
          <mxGeometry x="470" y="300" width="140" height="70" as="geometry" />
        </mxCell>
        <mxCell id="qyAosdV2W5aRh3o3MJe6-20" value="" style="edgeStyle=none;html=1;endArrow=none;verticalAlign=bottom;rounded=0;entryX=0.393;entryY=1.057;entryDx=0;entryDy=0;entryPerimeter=0;labelBackgroundColor=#114B5F;strokeColor=#028090;fontColor=#E4FDE1;" edge="1" parent="1" source="qyAosdV2W5aRh3o3MJe6-1" target="qyAosdV2W5aRh3o3MJe6-2">
          <mxGeometry width="160" relative="1" as="geometry">
            <mxPoint x="300" y="510" as="sourcePoint" />
            <mxPoint x="460" y="510" as="targetPoint" />
          </mxGeometry>
        </mxCell>
        <mxCell id="qyAosdV2W5aRh3o3MJe6-22" value="" style="edgeStyle=none;html=1;endArrow=none;verticalAlign=bottom;rounded=0;entryX=0;entryY=0.5;entryDx=0;entryDy=0;labelBackgroundColor=#114B5F;strokeColor=#028090;fontColor=#E4FDE1;" edge="1" parent="1" source="qyAosdV2W5aRh3o3MJe6-1" target="qyAosdV2W5aRh3o3MJe6-3">
          <mxGeometry width="160" relative="1" as="geometry">
            <mxPoint x="300" y="510" as="sourcePoint" />
            <mxPoint x="460" y="510" as="targetPoint" />
          </mxGeometry>
        </mxCell>
        <mxCell id="qyAosdV2W5aRh3o3MJe6-23" value="" style="edgeStyle=none;html=1;endArrow=none;verticalAlign=bottom;rounded=0;labelBackgroundColor=#114B5F;strokeColor=#028090;fontColor=#E4FDE1;" edge="1" parent="1" target="qyAosdV2W5aRh3o3MJe6-19">
          <mxGeometry width="160" relative="1" as="geometry">
            <mxPoint x="70" y="270" as="sourcePoint" />
            <mxPoint x="460" y="510" as="targetPoint" />
          </mxGeometry>
        </mxCell>
        <mxCell id="qyAosdV2W5aRh3o3MJe6-24" value="" style="edgeStyle=none;html=1;endArrow=none;verticalAlign=bottom;rounded=0;labelBackgroundColor=#114B5F;strokeColor=#028090;fontColor=#E4FDE1;" edge="1" parent="1" source="qyAosdV2W5aRh3o3MJe6-1" target="qyAosdV2W5aRh3o3MJe6-6">
          <mxGeometry width="160" relative="1" as="geometry">
            <mxPoint x="130" y="550" as="sourcePoint" />
            <mxPoint x="327.4703977173317" y="394.54458052039854" as="targetPoint" />
          </mxGeometry>
        </mxCell>
        <mxCell id="qyAosdV2W5aRh3o3MJe6-25" value="" style="edgeStyle=none;html=1;endArrow=none;verticalAlign=bottom;rounded=0;entryX=0.437;entryY=0;entryDx=0;entryDy=0;entryPerimeter=0;labelBackgroundColor=#114B5F;strokeColor=#028090;fontColor=#E4FDE1;" edge="1" parent="1" source="qyAosdV2W5aRh3o3MJe6-1" target="qyAosdV2W5aRh3o3MJe6-8">
          <mxGeometry width="160" relative="1" as="geometry">
            <mxPoint x="130" y="554.0030085699113" as="sourcePoint" />
            <mxPoint x="260" y="550" as="targetPoint" />
          </mxGeometry>
        </mxCell>
        <mxCell id="qyAosdV2W5aRh3o3MJe6-26" value="" style="edgeStyle=none;html=1;endArrow=none;verticalAlign=bottom;rounded=0;entryX=0.037;entryY=0.325;entryDx=0;entryDy=0;entryPerimeter=0;labelBackgroundColor=#114B5F;strokeColor=#028090;fontColor=#E4FDE1;" edge="1" parent="1" source="qyAosdV2W5aRh3o3MJe6-1" target="qyAosdV2W5aRh3o3MJe6-9">
          <mxGeometry width="160" relative="1" as="geometry">
            <mxPoint x="130" y="560" as="sourcePoint" />
            <mxPoint x="270" y="560" as="targetPoint" />
          </mxGeometry>
        </mxCell>
        <mxCell id="qyAosdV2W5aRh3o3MJe6-27" value="" style="edgeStyle=none;html=1;endArrow=none;verticalAlign=bottom;rounded=0;entryX=0;entryY=0.5;entryDx=0;entryDy=0;labelBackgroundColor=#114B5F;strokeColor=#028090;fontColor=#E4FDE1;" edge="1" parent="1" source="qyAosdV2W5aRh3o3MJe6-1" target="qyAosdV2W5aRh3o3MJe6-10">
          <mxGeometry width="160" relative="1" as="geometry">
            <mxPoint x="112.05" y="589.9957963855052" as="sourcePoint" />
            <mxPoint x="260.00499999999994" y="659" as="targetPoint" />
          </mxGeometry>
        </mxCell>
        <mxCell id="qyAosdV2W5aRh3o3MJe6-28" value="" style="edgeStyle=none;html=1;endArrow=none;verticalAlign=bottom;rounded=0;entryX=0;entryY=1;entryDx=0;entryDy=0;labelBackgroundColor=#114B5F;strokeColor=#028090;fontColor=#E4FDE1;" edge="1" parent="1" source="qyAosdV2W5aRh3o3MJe6-1" target="qyAosdV2W5aRh3o3MJe6-15">
          <mxGeometry width="160" relative="1" as="geometry">
            <mxPoint x="109.89" y="599.9962042336695" as="sourcePoint" />
            <mxPoint x="259.995" y="745.46" as="targetPoint" />
          </mxGeometry>
        </mxCell>
        <mxCell id="qyAosdV2W5aRh3o3MJe6-29" value="" style="edgeStyle=none;html=1;endArrow=none;verticalAlign=bottom;rounded=0;entryX=0;entryY=1;entryDx=0;entryDy=0;labelBackgroundColor=#114B5F;strokeColor=#028090;fontColor=#E4FDE1;" edge="1" parent="1" source="qyAosdV2W5aRh3o3MJe6-1" target="qyAosdV2W5aRh3o3MJe6-11">
          <mxGeometry width="160" relative="1" as="geometry">
            <mxPoint x="100" y="600.0045454545455" as="sourcePoint" />
            <mxPoint x="250" y="854.55" as="targetPoint" />
          </mxGeometry>
        </mxCell>
        <mxCell id="qyAosdV2W5aRh3o3MJe6-31" style="edgeStyle=orthogonalEdgeStyle;rounded=0;orthogonalLoop=1;jettySize=auto;html=1;labelBackgroundColor=#114B5F;strokeColor=#028090;fontColor=#E4FDE1;" edge="1" parent="1" source="qyAosdV2W5aRh3o3MJe6-30" target="qyAosdV2W5aRh3o3MJe6-1">
          <mxGeometry relative="1" as="geometry" />
        </mxCell>
        <mxCell id="qyAosdV2W5aRh3o3MJe6-30" value="&lt;div&gt;Admin&lt;/div&gt;&lt;div&gt;&lt;br&gt;&lt;/div&gt;" style="shape=umlActor;verticalLabelPosition=bottom;verticalAlign=top;html=1;outlineConnect=0;fillColor=#F45B69;strokeColor=#028090;fontColor=#E4FDE1;" vertex="1" parent="1">
          <mxGeometry x="40" y="380" width="30" height="60" as="geometry" />
        </mxCell>
        <mxCell id="qyAosdV2W5aRh3o3MJe6-34" value="Видалення юзерів" style="ellipse;whiteSpace=wrap;html=1;fillColor=#F45B69;strokeColor=#028090;fontColor=#E4FDE1;" vertex="1" parent="1">
          <mxGeometry x="10" y="560" width="215" height="80" as="geometry" />
        </mxCell>
        <mxCell id="qyAosdV2W5aRh3o3MJe6-35" value="&lt;div&gt;Взаємодія з категоріями&lt;/div&gt;" style="ellipse;whiteSpace=wrap;html=1;fillColor=#F45B69;strokeColor=#028090;fontColor=#E4FDE1;" vertex="1" parent="1">
          <mxGeometry x="470" y="560" width="215" height="80" as="geometry" />
        </mxCell>
        <mxCell id="qyAosdV2W5aRh3o3MJe6-36" value="&lt;div&gt;Видалення будь-яких постів та коментарів&lt;/div&gt;" style="ellipse;whiteSpace=wrap;html=1;fillColor=#F45B69;strokeColor=#028090;fontColor=#E4FDE1;" vertex="1" parent="1">
          <mxGeometry x="225" y="590" width="215" height="80" as="geometry" />
        </mxCell>
        <mxCell id="qyAosdV2W5aRh3o3MJe6-37" value="" style="edgeStyle=none;html=1;endArrow=none;verticalAlign=bottom;rounded=0;exitX=0.5;exitY=0.5;exitDx=0;exitDy=0;exitPerimeter=0;entryX=0.4;entryY=-0.012;entryDx=0;entryDy=0;entryPerimeter=0;labelBackgroundColor=#114B5F;strokeColor=#028090;fontColor=#E4FDE1;" edge="1" parent="1" source="qyAosdV2W5aRh3o3MJe6-30" target="qyAosdV2W5aRh3o3MJe6-36">
          <mxGeometry width="160" relative="1" as="geometry">
            <mxPoint x="260" y="330" as="sourcePoint" />
            <mxPoint x="420" y="330" as="targetPoint" />
          </mxGeometry>
        </mxCell>
        <mxCell id="qyAosdV2W5aRh3o3MJe6-38" value="" style="edgeStyle=none;html=1;endArrow=none;verticalAlign=bottom;rounded=0;exitX=1;exitY=1;exitDx=0;exitDy=0;exitPerimeter=0;labelBackgroundColor=#114B5F;strokeColor=#028090;fontColor=#E4FDE1;" edge="1" parent="1" source="qyAosdV2W5aRh3o3MJe6-30" target="qyAosdV2W5aRh3o3MJe6-34">
          <mxGeometry width="160" relative="1" as="geometry">
            <mxPoint x="65" y="420" as="sourcePoint" />
            <mxPoint x="321" y="599.04" as="targetPoint" />
          </mxGeometry>
        </mxCell>
        <mxCell id="qyAosdV2W5aRh3o3MJe6-39" value="" style="edgeStyle=none;html=1;endArrow=none;verticalAlign=bottom;rounded=0;entryX=0;entryY=0.5;entryDx=0;entryDy=0;exitX=1;exitY=0.3333333333333333;exitDx=0;exitDy=0;exitPerimeter=0;labelBackgroundColor=#114B5F;strokeColor=#028090;fontColor=#E4FDE1;" edge="1" parent="1" source="qyAosdV2W5aRh3o3MJe6-30" target="qyAosdV2W5aRh3o3MJe6-35">
          <mxGeometry width="160" relative="1" as="geometry">
            <mxPoint x="65" y="420" as="sourcePoint" />
            <mxPoint x="321" y="599.04" as="targetPoint" />
          </mxGeometry>
        </mxCell>
        <mxCell id="qyAosdV2W5aRh3o3MJe6-40" value="Створення категорій" style="ellipse;whiteSpace=wrap;html=1;fillColor=#F45B69;strokeColor=#028090;fontColor=#E4FDE1;" vertex="1" parent="1">
          <mxGeometry x="627.5" y="670" width="140" height="60" as="geometry" />
        </mxCell>
        <mxCell id="qyAosdV2W5aRh3o3MJe6-41" value="Видалення категорій" style="ellipse;whiteSpace=wrap;html=1;fillColor=#F45B69;strokeColor=#028090;fontColor=#E4FDE1;" vertex="1" parent="1">
          <mxGeometry x="700" y="500" width="140" height="60" as="geometry" />
        </mxCell>
        <mxCell id="qyAosdV2W5aRh3o3MJe6-42" value="&amp;lt;&amp;lt;extend&amp;gt;&amp;gt;" style="edgeStyle=none;html=1;startArrow=open;endArrow=none;startSize=12;verticalAlign=bottom;dashed=1;labelBackgroundColor=none;rounded=0;entryX=0;entryY=0.4;entryDx=0;entryDy=0;entryPerimeter=0;strokeColor=#028090;fontColor=#E4FDE1;" edge="1" parent="1" source="qyAosdV2W5aRh3o3MJe6-35" target="qyAosdV2W5aRh3o3MJe6-41">
          <mxGeometry x="0.1433" y="2" width="160" relative="1" as="geometry">
            <mxPoint x="260" y="480" as="sourcePoint" />
            <mxPoint x="420" y="480" as="targetPoint" />
            <mxPoint as="offset" />
          </mxGeometry>
        </mxCell>
        <mxCell id="qyAosdV2W5aRh3o3MJe6-43" value="&amp;lt;&amp;lt;extend&amp;gt;&amp;gt;" style="edgeStyle=none;html=1;startArrow=open;endArrow=none;startSize=12;verticalAlign=bottom;dashed=1;labelBackgroundColor=none;rounded=0;entryX=0.5;entryY=0;entryDx=0;entryDy=0;exitX=0.73;exitY=0.938;exitDx=0;exitDy=0;exitPerimeter=0;strokeColor=#028090;fontColor=#E4FDE1;" edge="1" parent="1" source="qyAosdV2W5aRh3o3MJe6-35" target="qyAosdV2W5aRh3o3MJe6-40">
          <mxGeometry x="0.1433" y="2" width="160" relative="1" as="geometry">
            <mxPoint x="642.6254524020169" y="575.659554241367" as="sourcePoint" />
            <mxPoint x="710" y="534" as="targetPoint" />
            <mxPoint as="offset" />
          </mxGeometry>
        </mxCell>
      </root>
    </mxGraphModel>
  </diagram>
</mxfile>
